<?xml version="1.0" standalone="no"?><!DOCTYPE svg PUBLIC "-//W3C//DTD SVG 1.1//EN" "http://www.w3.org/Graphics/SVG/1.1/DTD/svg11.dtd"><svg t="1673451390920" class="icon" viewBox="0 0 1024 1024" version="1.1" xmlns="http://www.w3.org/2000/svg" p-id="4561" width="16" height="16" xmlns:xlink="http://www.w3.org/1999/xlink"><path d="M526.976 352.298667a21.333333 21.333333 0 0 1-8.533333 25.941333l-3.434667 1.749333L426.666667 414.933333V789.333333a64 64 0 0 1-57.834667 63.701334L362.666667 853.333333a64 64 0 1 1 21.354666-124.352L384 400.448a21.333333 21.333333 0 0 1 10.176-18.176l3.306667-1.664 101.802666-40.298667a21.333333 21.333333 0 0 1 27.690667 11.989334z" fill="#3654FD" p-id="4562"></path><path d="M738.816 269.653333a21.333333 21.333333 0 0 1-8.64 25.92l-3.434667 1.706667-78.570666 30.784a21.333333 21.333333 0 0 1-19.008-37.994667l3.456-1.706666 78.549333-30.805334a21.333333 21.333333 0 0 1 27.648 12.096z" fill="#FFC500" p-id="4563"></path><path d="M745.173333 162.816a21.333333 21.333333 0 0 1-8.533333 25.962667l-3.456 1.706666L597.333333 244.266667l-0.085333 415.530666L597.333333 661.333333a64 64 0 0 1-57.834666 63.701334L533.333333 725.333333a64 64 0 1 1 21.333334-124.373333V229.781333a21.333333 21.333333 0 0 1 10.176-18.176l3.306666-1.664 149.333334-59.093333a21.333333 21.333333 0 0 1 27.690666 11.946667z" fill="#3654FD" p-id="4564"></path></svg>