<?xml version="1.0" standalone="no"?><!DOCTYPE svg PUBLIC "-//W3C//DTD SVG 1.1//EN" "http://www.w3.org/Graphics/SVG/1.1/DTD/svg11.dtd"><svg class="icon" width="32px" height="32.00px" viewBox="0 0 1024 1024" version="1.1" xmlns="http://www.w3.org/2000/svg"><path d="M544 544m-266.666667 0a266.666667 266.666667 0 1 0 533.333334 0 266.666667 266.666667 0 1 0-533.333334 0Z" fill="#FFC500" opacity=".2" /><path d="M597.333333 447.274667v129.450666a8.533333 8.533333 0 0 1-14.570666 6.037334l-64.725334-64.725334a8.533333 8.533333 0 0 1 0-12.074666l64.725334-64.725334a8.533333 8.533333 0 0 1 14.570666 6.037334z" fill="#3654FD" /><path d="M426.666667 426.666667m21.333333 0l0 0q21.333333 0 21.333333 21.333333l0 128q0 21.333333-21.333333 21.333333l0 0q-21.333333 0-21.333333-21.333333l0-128q0-21.333333 21.333333-21.333333Z" fill="#3654FD" /><path d="M512 192c176.725333 0 320 143.274667 320 320a319.146667 319.146667 0 0 1-23.488 120.554667 21.333333 21.333333 0 0 1-39.530667-16.085334A276.48 276.48 0 0 0 789.333333 512c0-153.173333-124.16-277.333333-277.333333-277.333333s-277.333333 124.16-277.333333 277.333333 124.16 277.333333 277.333333 277.333333c56.533333 0 110.506667-16.938667 156.202667-48.128a21.333333 21.333333 0 0 1 24.064 35.221334A318.570667 318.570667 0 0 1 512 832c-176.725333 0-320-143.274667-320-320 0-176.725333 143.274667-320 320-320z" fill="#3654FD" /></svg>